<?xml version="1.0" standalone="no"?>
<!DOCTYPE svg PUBLIC "-//W3C//DTD SVG 20010904//EN"
 "http://www.w3.org/TR/2001/REC-SVG-20010904/DTD/svg10.dtd">
<svg version="1.0" xmlns="http://www.w3.org/2000/svg"
 width="1280.000000pt" height="1280.000000pt" viewBox="0 0 1280.000000 1280.000000"
 preserveAspectRatio="xMidYMid meet">
<metadata>
Created by potrace 1.14, written by Peter Selinger 2001-2017
</metadata>
<g transform="translate(0.000000,1280.000000) scale(0.100000,-0.100000)"
fill="#000000" stroke="none">
<path d="M7388 12736 c-28 -30 -58 -66 -67 -79 -54 -80 -93 -135 -110 -157
-11 -14 -21 -28 -21 -32 0 -8 -48 -80 -58 -88 -4 -3 -15 -23 -25 -45 -10 -22
-33 -62 -51 -90 -18 -27 -53 -88 -77 -135 -24 -47 -48 -88 -54 -92 -5 -4 -6
-8 -1 -8 5 0 2 -7 -5 -16 -7 -9 -14 -21 -15 -28 -1 -6 -17 -42 -35 -81 -26
-56 -33 -82 -33 -130 1 -65 2 -72 26 -125 61 -135 85 -296 57 -385 -6 -22 -13
-49 -15 -60 -2 -11 -8 -38 -14 -60 -5 -22 -13 -56 -16 -75 -3 -19 -8 -38 -9
-41 -2 -3 -7 -32 -10 -65 -4 -32 -12 -77 -20 -99 -7 -22 -16 -58 -19 -80 -4
-22 -9 -47 -11 -55 -3 -8 -7 -33 -10 -55 -3 -22 -8 -53 -10 -70 -3 -21 -34
-59 -109 -135 -123 -123 -136 -137 -136 -144 0 -14 -59 -96 -64 -88 -6 10 0
400 9 504 9 117 26 145 165 270 27 25 36 46 30 73 -1 6 -4 26 -6 45 -3 37 -7
62 -20 145 -9 58 -8 51 -18 92 -8 34 -12 79 -21 218 -2 44 -7 91 -9 105 -3 14
-8 45 -11 70 -8 57 -21 72 -41 46 -8 -11 -14 -27 -14 -36 0 -9 -3 -20 -7 -24
-5 -4 -8 -11 -9 -14 0 -4 -4 -14 -7 -22 -25 -59 -106 -396 -113 -465 -1 -16
-3 -31 -4 -32 -3 -4 -5 -10 -15 -63 -10 -52 -12 -58 -15 -65 -1 -3 -3 -17 -4
-32 -1 -16 -6 -57 -10 -93 -5 -36 -10 -90 -11 -120 -1 -30 -5 -100 -9 -155
-10 -152 -17 -281 -21 -375 -5 -110 -10 -129 -32 -124 -26 7 -52 48 -138 212
-46 87 -65 106 -81 81 -16 -27 -24 -465 -11 -644 4 -49 9 -133 12 -185 5 -95
9 -131 20 -212 17 -121 27 -173 35 -188 5 -10 7 -19 5 -22 -3 -2 0 -20 6 -39
15 -47 19 -98 8 -105 -5 -3 -7 -9 -5 -13 6 -8 -18 -176 -35 -249 -6 -26 -12
-55 -14 -65 -2 -9 -6 -21 -9 -26 -3 -5 -8 -26 -12 -46 -7 -48 -9 -54 -37 -152
-16 -55 -33 -89 -48 -102 -34 -28 -132 -75 -209 -101 -36 -12 -94 -35 -129
-52 -35 -16 -68 -31 -75 -32 -6 -1 -22 -9 -36 -19 -13 -9 -28 -17 -32 -17 -4
0 -45 -17 -90 -38 -46 -21 -103 -47 -128 -57 -148 -61 -244 -108 -443 -219
-76 -42 -142 -76 -147 -76 -4 0 -10 -4 -12 -8 -1 -5 -43 -32 -93 -61 -157 -92
-270 -160 -281 -170 -20 -17 -99 -55 -121 -58 -13 -2 -64 14 -115 36 -52 22
-107 43 -123 47 -17 4 -34 10 -40 14 -5 5 -28 11 -50 15 -22 4 -44 10 -50 14
-5 3 -13 6 -17 7 -5 1 -9 2 -10 4 -3 2 -20 5 -63 13 -16 3 -64 14 -105 25 -41
11 -96 23 -123 26 -55 8 -64 0 -145 -114 -25 -36 -48 -67 -52 -70 -11 -10 -64
-94 -78 -125 -5 -11 -24 -44 -41 -73 -17 -29 -31 -59 -31 -67 0 -7 -3 -15 -7
-17 -9 -4 -73 -134 -73 -148 0 -5 -11 -33 -24 -62 -13 -29 -27 -66 -31 -83 -9
-33 -9 -34 -17 -55 -21 -56 -47 -140 -53 -170 -16 -80 -53 -137 -167 -255 -42
-44 -91 -98 -108 -120 -48 -63 -103 -127 -123 -144 -24 -21 -117 -148 -117
-160 0 -5 -13 -20 -28 -33 -32 -27 -100 -122 -157 -220 -22 -38 -43 -68 -47
-68 -4 0 -8 -5 -8 -10 0 -6 -4 -16 -10 -23 -47 -58 -61 -77 -55 -77 3 0 0 -7
-9 -15 -20 -20 -113 -171 -157 -255 -18 -36 -41 -73 -49 -82 -21 -23 -320
-615 -320 -633 0 -8 -4 -15 -8 -15 -4 0 -14 -20 -21 -45 -7 -25 -17 -45 -22
-45 -5 0 -8 -3 -7 -7 2 -5 -9 -33 -23 -63 -26 -54 -64 -153 -61 -157 1 -2 -6
-22 -14 -45 -68 -190 -145 -490 -142 -553 0 -11 0 -24 -2 -30 -16 -62 28 -80
190 -80 159 0 342 12 400 25 25 5 77 12 115 16 68 5 110 11 110 14 0 3 39 9
90 14 28 3 61 8 75 11 14 2 36 7 50 10 14 3 41 8 60 11 19 3 39 9 45 12 5 3
28 8 50 9 22 2 62 11 90 19 27 9 65 18 83 20 18 3 59 12 90 20 31 9 64 17 72
19 8 1 27 7 41 13 14 6 39 12 55 15 36 6 144 51 369 156 44 21 109 51 145 67
36 16 67 32 70 36 3 3 19 10 35 14 17 4 32 10 35 14 3 3 28 14 55 24 28 10 93
41 145 68 52 27 144 75 203 105 l108 55 62 -12 c34 -7 73 -14 87 -16 14 -1 39
-6 55 -9 17 -4 41 -8 55 -10 14 -2 25 -4 25 -5 0 -4 45 -11 103 -16 l64 -6 49
53 c27 29 49 59 49 66 0 6 6 16 14 20 13 8 55 93 71 143 4 14 14 34 22 45 13
18 14 12 9 -60 -3 -44 -8 -105 -12 -135 -12 -104 -5 -425 10 -478 2 -9 8 -44
11 -77 4 -33 11 -80 16 -105 6 -25 12 -65 15 -90 3 -25 12 -63 21 -85 8 -22
17 -53 20 -70 3 -16 11 -42 19 -56 7 -15 11 -29 8 -31 -2 -3 2 -11 11 -18 8
-7 15 -16 15 -21 0 -8 20 -53 106 -235 13 -29 37 -66 52 -84 16 -18 37 -48 48
-69 10 -20 22 -40 26 -46 4 -5 31 -41 60 -80 29 -38 57 -76 63 -84 5 -8 42
-46 81 -85 40 -39 88 -97 108 -129 20 -31 40 -57 44 -57 8 0 27 -36 55 -100
42 -98 67 -160 71 -181 3 -13 11 -43 18 -65 18 -65 -5 -111 -113 -224 -90 -93
-129 -144 -129 -166 0 -15 73 -9 123 11 20 8 37 11 37 6 0 -15 -85 -84 -133
-108 -48 -25 -164 -62 -217 -70 -19 -3 -98 -18 -175 -34 -77 -17 -156 -32
-175 -35 -78 -12 -168 -78 -333 -247 -70 -73 -107 -119 -132 -170 -36 -72 -44
-116 -22 -118 25 -3 53 4 79 17 15 8 30 14 33 14 3 1 46 21 97 45 50 25 98 45
105 45 7 0 13 4 13 9 0 14 50 -5 84 -32 l29 -24 -19 -34 c-10 -19 -24 -41 -31
-49 -30 -39 -104 -202 -98 -219 7 -24 44 -21 105 7 25 11 48 19 51 19 4 -1 15
5 25 14 22 18 199 109 212 109 18 0 100 -86 120 -126 21 -41 21 -42 2 -113
-17 -66 -24 -198 -13 -228 12 -30 65 -13 128 40 35 28 67 60 72 69 17 37 249
270 321 325 43 31 88 67 102 79 14 12 54 34 90 50 36 16 71 34 78 41 7 7 18
13 23 13 6 0 45 16 87 36 42 20 111 50 152 66 41 16 80 34 87 40 7 5 27 14 45
18 18 5 84 27 147 49 139 50 176 80 167 142 -3 22 -9 47 -14 57 -5 9 -12 34
-16 54 -7 37 -2 44 28 39 4 -1 16 1 26 4 20 6 20 4 4 140 -3 33 -7 73 -8 89
l-1 30 85 2 c86 3 140 15 140 33 0 6 -12 18 -26 28 -39 27 -74 63 -74 74 0 6
9 24 20 40 28 38 13 61 -56 85 -30 10 -55 25 -57 34 -4 16 5 113 17 185 2 17
7 49 11 73 3 23 10 42 14 42 4 0 15 17 24 38 9 20 27 53 39 72 13 20 34 54 47
77 37 61 91 90 220 117 13 2 34 0 48 -5 49 -18 250 -50 353 -55 71 -4 113 -10
130 -21 27 -17 80 -69 80 -78 0 -3 46 -74 102 -158 83 -124 125 -175 228 -277
133 -132 176 -189 233 -309 41 -86 43 -78 -43 -249 -48 -96 -59 -126 -50 -137
8 -10 19 -11 43 -4 18 6 41 12 52 14 11 2 35 8 54 14 41 13 59 -4 62 -56 1
-18 2 -48 3 -65 1 -18 -1 -37 -5 -43 -4 -5 -14 -44 -23 -85 -29 -132 -48 -183
-124 -325 -54 -101 -105 -205 -109 -225 -5 -24 -4 -312 1 -350 5 -33 8 -49 21
-110 4 -14 8 -36 11 -49 7 -34 36 -81 50 -81 6 0 16 6 22 13 11 13 61 112 108
212 40 88 80 133 123 142 20 4 39 6 43 5 7 -2 66 -2 168 -1 124 1 118 3 138
-43 11 -24 36 -81 57 -128 32 -72 131 -269 140 -278 18 -20 85 111 99 194 2
16 5 30 6 32 2 1 3 5 4 10 1 4 4 12 7 17 3 6 11 37 18 70 26 125 49 141 201
140 l106 0 140 -140 c144 -144 208 -191 234 -175 21 13 17 150 -5 210 -9 25
-20 59 -26 75 -5 17 -21 55 -35 85 -15 30 -33 78 -41 105 -8 28 -18 59 -22 70
-5 11 -19 47 -32 80 -37 95 -55 119 -142 186 -79 61 -137 116 -137 130 0 4
-22 29 -48 57 -27 28 -63 80 -81 116 -33 67 -74 177 -68 183 9 8 59 4 132 -11
93 -19 125 -20 125 -5 0 5 -14 37 -30 71 -41 82 -40 104 8 124 62 27 67 31 64
49 -2 10 -55 68 -118 129 -123 121 -121 116 -93 203 5 17 12 44 15 60 3 15 14
71 25 123 11 52 22 120 25 150 2 30 8 73 14 95 5 22 11 60 14 85 3 25 8 55 10
66 6 30 93 211 105 218 5 4 19 -6 31 -21 43 -57 65 -85 76 -97 6 -6 13 -16 15
-23 8 -22 274 -309 439 -473 104 -104 293 -269 483 -423 40 -32 80 -64 90 -72
9 -8 21 -15 26 -15 5 0 14 -6 20 -14 7 -8 44 -36 84 -62 40 -27 74 -51 77 -54
7 -7 47 -30 120 -67 35 -19 71 -40 80 -47 33 -27 93 -56 130 -62 33 -5 40 -3
53 17 8 13 18 44 21 69 6 48 9 61 25 130 5 25 13 72 16 105 7 66 13 112 20
135 7 26 18 222 18 320 1 104 -11 344 -18 400 -3 19 -7 58 -10 85 -3 28 -8 61
-10 75 -2 14 -7 56 -10 95 -4 38 -9 73 -12 78 -2 4 -6 33 -8 65 -7 97 -26 215
-50 312 -3 11 -7 28 -9 37 -2 10 -14 54 -26 98 -12 44 -25 100 -30 126 -4 25
-14 65 -20 90 -13 43 -15 53 -24 114 -2 17 -11 49 -20 70 -27 74 -104 348
-127 455 -6 30 -16 69 -23 85 -14 39 -14 47 2 125 8 36 15 79 17 95 13 107 14
110 52 144 21 18 62 55 91 82 30 27 56 49 59 49 9 0 134 135 180 194 25 32 58
71 72 86 72 77 203 274 195 295 -6 14 -39 33 -69 40 -11 2 -36 9 -55 15 -113
35 -275 64 -420 75 -30 3 -61 7 -68 10 -7 2 -31 7 -55 9 -23 3 -93 10 -155 17
-89 10 -118 17 -136 33 -40 38 -92 81 -115 96 -13 8 -31 22 -41 30 -10 8 -38
31 -62 50 -23 19 -52 44 -64 56 -12 11 -52 36 -89 55 -36 19 -79 46 -94 62
-15 15 -58 87 -95 160 -38 72 -72 137 -76 142 -4 6 -24 42 -45 80 -20 39 -52
93 -70 120 -18 28 -45 73 -61 100 -15 28 -31 52 -34 55 -3 3 -9 12 -15 21 -5
9 -40 62 -78 117 -37 56 -70 109 -74 119 -4 10 -9 20 -12 23 -12 10 -61 90
-61 99 0 5 -3 11 -8 13 -4 2 -25 28 -47 58 -22 30 -42 57 -45 60 -3 3 -14 19
-26 35 -11 17 -45 65 -75 108 -30 43 -70 102 -89 131 -19 29 -56 84 -81 122
l-46 69 -6 116 c-4 64 -11 127 -16 140 -6 13 -17 62 -26 108 -9 47 -23 97 -31
113 -8 15 -14 29 -14 30 3 19 -132 292 -151 308 -3 3 -13 19 -22 36 -14 27
-100 140 -117 154 -7 6 -32 164 -36 230 -9 153 -15 218 -24 269 -5 31 -12 83
-14 116 -6 74 -23 197 -31 218 -7 18 67 179 95 207 3 3 25 43 49 90 132 255
218 412 261 480 5 8 19 33 31 55 12 22 27 47 34 55 8 8 17 28 21 44 7 29 6 29
-27 22 -18 -3 -35 -10 -39 -14 -7 -10 -88 -62 -96 -62 -4 0 -24 -15 -44 -32
-70 -61 -92 -78 -98 -78 -4 0 -32 -23 -62 -50 -30 -27 -82 -69 -114 -92 -33
-24 -81 -62 -108 -85 -27 -24 -55 -43 -63 -43 -16 0 -45 49 -45 78 0 10 -4 22
-9 28 -5 5 -24 36 -42 69 -18 33 -51 86 -73 119 -23 32 -46 67 -52 77 -6 10
-19 28 -28 38 -12 14 -16 28 -12 48 10 46 14 68 21 120 8 55 32 183 39 204 3
8 7 28 9 44 3 17 12 59 20 95 31 131 46 206 52 255 4 28 13 79 22 115 8 36 17
83 19 105 7 64 10 80 16 90 6 10 17 73 22 135 2 19 8 60 14 90 18 86 21 135
11 151 -7 11 -14 7 -36 -21 -16 -19 -36 -43 -45 -52 -10 -10 -18 -21 -18 -24
0 -3 -14 -18 -31 -34 -17 -15 -39 -40 -48 -54 -10 -14 -52 -64 -95 -111 -43
-47 -99 -111 -124 -142 -26 -32 -58 -69 -72 -83 -14 -14 -43 -49 -64 -77 -21
-29 -42 -53 -47 -53 -5 0 -9 -7 -9 -15 0 -8 -4 -15 -8 -15 -4 0 -16 -14 -26
-31 -18 -30 -18 -31 7 -67 14 -20 38 -50 54 -67 62 -65 105 -126 105 -148 0
-25 -39 -173 -53 -199 -10 -19 -26 -16 -109 26 -25 12 -92 37 -150 54 -100 30
-111 32 -235 27 -71 -2 -141 -7 -155 -10 -14 -3 -38 -8 -54 -11 -16 -2 -33 -7
-37 -10 -15 -9 -18 13 -7 57 6 24 11 55 13 69 1 14 6 41 10 60 5 19 9 37 10
40 1 3 4 19 8 35 4 17 9 49 12 71 2 23 9 53 15 68 10 28 15 52 25 121 10 69
60 184 98 225 13 14 54 66 92 115 37 50 71 92 74 95 3 3 26 31 50 63 40 53 45
64 44 110 0 29 -3 70 -7 92 -3 22 -8 63 -10 91 -3 28 -10 73 -16 100 -7 27
-14 58 -16 69 -2 11 -6 44 -9 74 -2 30 -7 66 -10 80 -11 51 -14 71 -21 138 -4
37 -8 82 -10 98 -2 17 -6 64 -9 105 -5 88 -16 132 -33 138 -7 2 -35 -21 -64
-52z"/>
</g>
</svg>
